<?xml version="1.0" encoding="utf-8"?>
<!-- Generator: Adobe Illustrator 21.0.0, SVG Export Plug-In . SVG Version: 6.00 Build 0)  -->
<svg version="1.1" id="图层_1" xmlns="http://www.w3.org/2000/svg" xmlns:xlink="http://www.w3.org/1999/xlink" x="0px" y="0px"
	 viewBox="0 0 1920 1080" style="enable-background:new 0 0 1920 1080;" xml:space="preserve">
<style type="text/css">
	.st0{opacity:0.6;}
	.st1{fill:#72BFC4;}
</style>
<g id="大框框_x2014__x2014_bg" class="st0">
	<path class="st1" d="M720,59.1L720,59.1c3.3,0,6-2.7,6-6v-36c0-3.3-2.7-6-6-6l0,0c-3.3,0-6,2.7-6,6v36
		C714,56.4,716.7,59.1,720,59.1z M715,17.1c0-2.8,2.2-5,5-5s5,2.2,5,5v36c0,2.8-2.2,5-5,5s-5-2.2-5-5V17.1z"/>
	<polygon class="st1" points="643.5,63.3 585.9,63.3 585.9,64.3 643,64.3 662.1,83.3 830,83.3 830,82.3 662.5,82.3 	"/>
	<polygon class="st1" points="34.2,661.3 34.2,448.9 23.2,459.9 23.2,650.3 	"/>
	<path class="st1" d="M1200,59.1L1200,59.1c3.3,0,6-2.7,6-6v-36c0-3.3-2.7-6-6-6l0,0c-3.3,0-6,2.7-6,6v36
		C1194,56.4,1196.7,59.1,1200,59.1z M1195,17.1c0-2.8,2.2-5,5-5s5,2.2,5,5v36c0,2.8-2.2,5-5,5s-5-2.2-5-5V17.1z"/>
	<polygon class="st1" points="1898.5,864.6 1896,864.6 1896,672.2 1912,656.2 1912,453.9 1911.8,453.8 1896,438 1896,98
		1901.3,92.8 1901.3,35.1 1901.3,27.1 1895.3,27.1 1800.6,27.1 1793.6,34.1 1206,34.1 1206,35.1 1792.6,35.1 1792.6,35.1 1895,35.1
		1895,438.4 1895.1,438.5 1911,454.4 1911,655.8 1895,671.8 1895,864.6 1892.5,864.6 1892.5,1054.9 1886.8,1044.1 1886.8,672.4
		1902.8,656.4 1902.8,454 1886.8,438.1 1886.8,48.3 1361.9,48.3 1333.8,76.3 1276.7,76.3 1276.7,77.3 1334.3,77.3 1362.3,49.3
		1885.8,49.3 1885.8,438.6 1901.8,454.4 1901.8,656 1885.8,672 1885.8,1044.3 1892.5,1057 1892.5,1058.6 1695.5,1058.6
		1695.5,1061.1 960,1061.1 960,1061.1 224.5,1061.1 224.5,1058.6 27.5,1058.6 27.5,1057 34.2,1044.3 34.2,672 18.2,656 18.2,454.4
		34.2,438.6 34.2,49.3 557.7,49.3 585.7,77.3 643.2,77.3 643.2,76.3 586.1,76.3 558.1,48.3 33.2,48.3 33.2,438.1 17.2,454
		17.2,656.4 33.2,672.4 33.2,1044.1 27.5,1054.9 27.5,864.6 25,864.6 25,671.8 9,655.8 9,454.4 24.9,438.5 25,438.4 25,35.1
		127.4,35.1 127.3,35.1 714,35.1 714,34.1 126.3,34.1 119.4,27.1 24.7,27.1 18.7,27.1 18.7,35.1 18.7,92.8 24,98 24,438 8.1,453.8
		8,453.9 8,656.2 24,672.2 24,864.6 21.5,864.6 21.5,1001 19,1003.5 19,1061.1 19,1069.1 25,1069.1 119.6,1069.1 124.1,1064.6
		224.5,1064.6 224.5,1062.1 960,1062.1 960,1062.1 1695.5,1062.1 1695.5,1064.6 1795.9,1064.6 1800.4,1069.1 1895,1069.1
		1901,1069.1 1901,1061.1 1901,1003.5 1898.5,1001 	"/>
	<polygon class="st1" points="1276.9,64.3 1334.1,64.3 1334.1,63.3 1276.5,63.3 1257.5,82.3 1089.9,82.3 1089.9,83.3 1257.9,83.3
		"/>
	<polygon class="st1" points="1885.8,448.9 1885.8,661.3 1896.8,650.3 1896.8,459.9 	"/>
	<path class="st1" d="M1074.2,99H845.8c-9,0-16.3-7.3-16.3-16.3s7.3-16.3,16.3-16.3h228.4c9,0,16.3,7.3,16.3,16.3
		S1083.1,99,1074.2,99z M845.8,67.5c-8.4,0-15.3,6.8-15.3,15.3S837.4,98,845.8,98h228.4c8.4,0,15.3-6.8,15.3-15.3
		s-6.8-15.3-15.3-15.3H845.8V67.5z"/>
</g>
</svg>
