<?xml version="1.0" encoding="utf-8"?>
<!-- Generator: Adobe Illustrator 21.0.0, SVG Export Plug-In . SVG Version: 6.00 Build 0)  -->
<svg version="1.1" id="图层_1" xmlns="http://www.w3.org/2000/svg" xmlns:xlink="http://www.w3.org/1999/xlink" x="0px" y="0px"
	 viewBox="0 0 843 698" style="enable-background:new 0 0 843 698;" xml:space="preserve">
<style type="text/css">
	.st0{opacity:0.6;}
	.st1{fill:#72BFC4;}
</style>
<g class="st0">
	<polygon class="st1" points="2.6,2.9 2.6,24.4 24.1,2.9 	"/>
	<path class="st1" d="M836.4,0.9h-78l-2,2H32.8L2.6,33.1V648l-2,2v38v6h6h78l1.9-1.9h417.8v-8h210l8.1,8h68.9l5,5h44v-5v-1V46.9l2-2
		v-38v-6H836.4z M839.4,691.1h-49h-67.5l-7.8-7.7l-0.3-0.3h-0.4h-210h-1v1v7H87.5l3.1-3.1h-84v-44l-3,3V33.5L33.2,3.9h722.1l-3,3h84
		v44l3-3L839.4,691.1L839.4,691.1z"/>
	<polygon class="st1" points="511.4,686.1 511.4,692.1 714.4,692.1 708.4,686.1 	"/>
</g>
</svg>
